<mxfile host="app.diagrams.net" modified="2024-06-02T19:32:17.496Z" agent="Mozilla/5.0 (X11; Linux x86_64) AppleWebKit/537.36 (KHTML, like Gecko) Chrome/125.0.0.0 Safari/537.36" etag="Ye5UhcSx3p8p00iHlvNx" version="24.4.13" type="device">
  <diagram name="Page-1" id="UmnG6x5tp6qrb22gdRWd">
    <mxGraphModel dx="1434" dy="754" grid="0" gridSize="10" guides="1" tooltips="1" connect="1" arrows="1" fold="1" page="1" pageScale="1" pageWidth="850" pageHeight="1100" math="0" shadow="0">
      <root>
        <mxCell id="0" />
        <mxCell id="1" parent="0" />
        <mxCell id="5gK6zpaWBkJ-7K4iz9fj-1" value="&lt;font style=&quot;font-size: 14px;&quot;&gt;&lt;b&gt;local FASTQ files&lt;/b&gt;&lt;/font&gt;" style="shape=hexagon;perimeter=hexagonPerimeter2;whiteSpace=wrap;html=1;fixedSize=1;fillColor=#fff2cc;strokeColor=#d6b656;" parent="1" vertex="1">
          <mxGeometry x="646" y="40" width="120" height="80" as="geometry" />
        </mxCell>
        <mxCell id="5gK6zpaWBkJ-7K4iz9fj-2" value="&lt;font style=&quot;font-size: 14px;&quot;&gt;&lt;b&gt;List with SRA accessions&lt;/b&gt;&lt;/font&gt;" style="shape=hexagon;perimeter=hexagonPerimeter2;whiteSpace=wrap;html=1;fixedSize=1;fillColor=#fff2cc;strokeColor=#d6b656;" parent="1" vertex="1">
          <mxGeometry x="20" y="40" width="120" height="80" as="geometry" />
        </mxCell>
        <mxCell id="5gK6zpaWBkJ-7K4iz9fj-86" value="" style="edgeStyle=orthogonalEdgeStyle;rounded=0;orthogonalLoop=1;jettySize=auto;html=1;" parent="1" source="5gK6zpaWBkJ-7K4iz9fj-4" target="5gK6zpaWBkJ-7K4iz9fj-15" edge="1">
          <mxGeometry relative="1" as="geometry" />
        </mxCell>
        <mxCell id="5gK6zpaWBkJ-7K4iz9fj-4" value="&lt;b&gt;&lt;font style=&quot;font-size: 14px;&quot;&gt;FASTQ&lt;/font&gt;&lt;/b&gt;" style="shape=hexagon;perimeter=hexagonPerimeter2;whiteSpace=wrap;html=1;fixedSize=1;fillColor=#fff2cc;strokeColor=#d6b656;" parent="1" vertex="1">
          <mxGeometry x="220" y="40" width="120" height="80" as="geometry" />
        </mxCell>
        <mxCell id="5gK6zpaWBkJ-7K4iz9fj-10" value="" style="endArrow=classic;html=1;rounded=0;entryX=0;entryY=0.5;entryDx=0;entryDy=0;strokeWidth=3;" parent="1" target="5gK6zpaWBkJ-7K4iz9fj-4" edge="1">
          <mxGeometry relative="1" as="geometry">
            <mxPoint x="140" y="79.5" as="sourcePoint" />
            <mxPoint x="240" y="79.5" as="targetPoint" />
          </mxGeometry>
        </mxCell>
        <mxCell id="5gK6zpaWBkJ-7K4iz9fj-11" value="Label" style="edgeLabel;resizable=0;html=1;;align=center;verticalAlign=middle;" parent="5gK6zpaWBkJ-7K4iz9fj-10" connectable="0" vertex="1">
          <mxGeometry relative="1" as="geometry" />
        </mxCell>
        <mxCell id="5gK6zpaWBkJ-7K4iz9fj-12" value="&lt;font style=&quot;font-size: 14px;&quot;&gt;fetch&lt;/font&gt;" style="edgeLabel;html=1;align=center;verticalAlign=middle;resizable=0;points=[];" parent="5gK6zpaWBkJ-7K4iz9fj-10" vertex="1" connectable="0">
          <mxGeometry x="0.02" y="3" relative="1" as="geometry">
            <mxPoint y="2" as="offset" />
          </mxGeometry>
        </mxCell>
        <mxCell id="5gK6zpaWBkJ-7K4iz9fj-15" value="&lt;font style=&quot;font-size: 14px;&quot;&gt;&lt;b&gt;FASTA&lt;/b&gt;&lt;/font&gt;" style="shape=hexagon;perimeter=hexagonPerimeter2;whiteSpace=wrap;html=1;fixedSize=1;fillColor=#fff2cc;strokeColor=#d6b656;" parent="1" vertex="1">
          <mxGeometry x="433" y="40" width="120" height="80" as="geometry" />
        </mxCell>
        <mxCell id="5gK6zpaWBkJ-7K4iz9fj-29" value="" style="endArrow=classic;html=1;rounded=0;exitX=1;exitY=0.5;exitDx=0;exitDy=0;entryX=0;entryY=0.5;entryDx=0;entryDy=0;strokeWidth=3;" parent="1" source="5gK6zpaWBkJ-7K4iz9fj-4" target="5gK6zpaWBkJ-7K4iz9fj-15" edge="1">
          <mxGeometry relative="1" as="geometry">
            <mxPoint x="325" y="79.5" as="sourcePoint" />
            <mxPoint x="410" y="80" as="targetPoint" />
          </mxGeometry>
        </mxCell>
        <mxCell id="5gK6zpaWBkJ-7K4iz9fj-30" value="Label" style="edgeLabel;resizable=0;html=1;;align=center;verticalAlign=middle;" parent="5gK6zpaWBkJ-7K4iz9fj-29" connectable="0" vertex="1">
          <mxGeometry relative="1" as="geometry" />
        </mxCell>
        <mxCell id="5gK6zpaWBkJ-7K4iz9fj-31" value="&lt;font style=&quot;font-size: 13px;&quot;&gt;translate&lt;/font&gt;" style="edgeLabel;html=1;align=center;verticalAlign=middle;resizable=0;points=[];" parent="5gK6zpaWBkJ-7K4iz9fj-29" vertex="1" connectable="0">
          <mxGeometry y="-1" relative="1" as="geometry">
            <mxPoint as="offset" />
          </mxGeometry>
        </mxCell>
        <mxCell id="5gK6zpaWBkJ-7K4iz9fj-35" value="" style="endArrow=classic;html=1;rounded=0;exitX=0;exitY=0.5;exitDx=0;exitDy=0;entryX=1;entryY=0.5;entryDx=0;entryDy=0;strokeWidth=3;" parent="1" source="5gK6zpaWBkJ-7K4iz9fj-1" target="5gK6zpaWBkJ-7K4iz9fj-15" edge="1">
          <mxGeometry relative="1" as="geometry">
            <mxPoint x="375" y="240" as="sourcePoint" />
            <mxPoint x="475" y="240" as="targetPoint" />
          </mxGeometry>
        </mxCell>
        <mxCell id="5gK6zpaWBkJ-7K4iz9fj-36" value="Label" style="edgeLabel;resizable=0;html=1;;align=center;verticalAlign=middle;" parent="5gK6zpaWBkJ-7K4iz9fj-35" connectable="0" vertex="1">
          <mxGeometry relative="1" as="geometry" />
        </mxCell>
        <mxCell id="5gK6zpaWBkJ-7K4iz9fj-37" value="&lt;font style=&quot;font-size: 13px;&quot;&gt;translate&lt;/font&gt;" style="edgeLabel;html=1;align=center;verticalAlign=middle;resizable=0;points=[];" parent="5gK6zpaWBkJ-7K4iz9fj-35" vertex="1" connectable="0">
          <mxGeometry y="-1" relative="1" as="geometry">
            <mxPoint as="offset" />
          </mxGeometry>
        </mxCell>
        <mxCell id="5gK6zpaWBkJ-7K4iz9fj-38" value="&lt;b&gt;&lt;font style=&quot;font-size: 14px;&quot;&gt;6 single-frame translations&amp;nbsp;&lt;/font&gt;&lt;/b&gt;" style="shape=hexagon;perimeter=hexagonPerimeter2;whiteSpace=wrap;html=1;fixedSize=1;fillColor=#fff2cc;strokeColor=#d6b656;" parent="1" vertex="1">
          <mxGeometry x="300" y="160" width="120" height="80" as="geometry" />
        </mxCell>
        <mxCell id="5gK6zpaWBkJ-7K4iz9fj-39" value="" style="endArrow=classic;html=1;rounded=0;exitX=0.5;exitY=1;exitDx=0;exitDy=0;entryX=1;entryY=0.5;entryDx=0;entryDy=0;strokeWidth=3;" parent="1" source="5gK6zpaWBkJ-7K4iz9fj-15" target="5gK6zpaWBkJ-7K4iz9fj-38" edge="1">
          <mxGeometry relative="1" as="geometry">
            <mxPoint x="380" y="380" as="sourcePoint" />
            <mxPoint x="480" y="200" as="targetPoint" />
            <Array as="points">
              <mxPoint x="480" y="200" />
            </Array>
          </mxGeometry>
        </mxCell>
        <mxCell id="5gK6zpaWBkJ-7K4iz9fj-40" value="&lt;font style=&quot;font-size: 14px;&quot;&gt;translate to protein&lt;/font&gt;" style="edgeLabel;resizable=0;html=1;;align=center;verticalAlign=middle;" parent="5gK6zpaWBkJ-7K4iz9fj-39" connectable="0" vertex="1">
          <mxGeometry relative="1" as="geometry" />
        </mxCell>
        <mxCell id="5gK6zpaWBkJ-7K4iz9fj-42" value="" style="endArrow=classic;html=1;rounded=0;exitX=0.5;exitY=1;exitDx=0;exitDy=0;strokeWidth=3;entryX=0.5;entryY=0;entryDx=0;entryDy=0;" parent="1" source="5gK6zpaWBkJ-7K4iz9fj-38" target="5gK6zpaWBkJ-7K4iz9fj-43" edge="1">
          <mxGeometry width="50" height="50" relative="1" as="geometry">
            <mxPoint x="400" y="400" as="sourcePoint" />
            <mxPoint x="360" y="275" as="targetPoint" />
          </mxGeometry>
        </mxCell>
        <mxCell id="5gK6zpaWBkJ-7K4iz9fj-43" value="&lt;font style=&quot;font-size: 14px;&quot;&gt;&lt;b&gt;6 single-frame HMMer searches&lt;/b&gt;&lt;/font&gt;" style="rounded=0;whiteSpace=wrap;html=1;fillColor=#d5e8d4;strokeColor=#82b366;" parent="1" vertex="1">
          <mxGeometry x="280" y="320" width="160" height="40" as="geometry" />
        </mxCell>
        <mxCell id="5gK6zpaWBkJ-7K4iz9fj-44" value="&lt;font style=&quot;font-size: 14px;&quot;&gt;&lt;b&gt;Dereplicate hits with vsearch&lt;/b&gt;&lt;/font&gt;" style="rounded=0;whiteSpace=wrap;html=1;fillColor=#f8cecc;strokeColor=#b85450;" parent="1" vertex="1">
          <mxGeometry x="280" y="400" width="160" height="40" as="geometry" />
        </mxCell>
        <mxCell id="5gK6zpaWBkJ-7K4iz9fj-45" value="&lt;font style=&quot;font-size: 14px;&quot;&gt;&lt;b&gt;blastn against custom contaminant DB&lt;/b&gt;&lt;/font&gt;" style="rounded=0;whiteSpace=wrap;html=1;fillColor=#f8cecc;strokeColor=#b85450;" parent="1" vertex="1">
          <mxGeometry x="280" y="480" width="160" height="40" as="geometry" />
        </mxCell>
        <mxCell id="5gK6zpaWBkJ-7K4iz9fj-46" value="&lt;font style=&quot;font-size: 14px;&quot;&gt;&lt;b&gt;blastx against non-viral refseq protein&lt;/b&gt;&lt;/font&gt;" style="rounded=0;whiteSpace=wrap;html=1;fillColor=#f8cecc;strokeColor=#b85450;" parent="1" vertex="1">
          <mxGeometry x="480" y="520" width="160" height="40" as="geometry" />
        </mxCell>
        <mxCell id="5gK6zpaWBkJ-7K4iz9fj-73" value="" style="edgeStyle=orthogonalEdgeStyle;rounded=0;orthogonalLoop=1;jettySize=auto;html=1;strokeWidth=3;exitX=0.5;exitY=1;exitDx=0;exitDy=0;entryX=0.5;entryY=0;entryDx=0;entryDy=0;" parent="1" source="5gK6zpaWBkJ-7K4iz9fj-45" edge="1">
          <mxGeometry relative="1" as="geometry">
            <mxPoint x="360" y="570" as="targetPoint" />
            <Array as="points">
              <mxPoint x="360" y="550" />
              <mxPoint x="360" y="550" />
            </Array>
          </mxGeometry>
        </mxCell>
        <mxCell id="5gK6zpaWBkJ-7K4iz9fj-49" value="" style="endArrow=classic;html=1;rounded=0;exitX=0.5;exitY=1;exitDx=0;exitDy=0;entryX=0.5;entryY=0;entryDx=0;entryDy=0;strokeWidth=3;" parent="1" source="5gK6zpaWBkJ-7K4iz9fj-43" target="5gK6zpaWBkJ-7K4iz9fj-44" edge="1">
          <mxGeometry width="50" height="50" relative="1" as="geometry">
            <mxPoint x="400" y="400" as="sourcePoint" />
            <mxPoint x="450" y="350" as="targetPoint" />
          </mxGeometry>
        </mxCell>
        <mxCell id="5gK6zpaWBkJ-7K4iz9fj-50" value="" style="endArrow=classic;html=1;rounded=0;exitX=0.5;exitY=1;exitDx=0;exitDy=0;entryX=0.5;entryY=0;entryDx=0;entryDy=0;strokeWidth=3;" parent="1" edge="1">
          <mxGeometry width="50" height="50" relative="1" as="geometry">
            <mxPoint x="359.5" y="440" as="sourcePoint" />
            <mxPoint x="359.5" y="480" as="targetPoint" />
            <Array as="points">
              <mxPoint x="359.5" y="450" />
              <mxPoint x="359.5" y="460" />
            </Array>
          </mxGeometry>
        </mxCell>
        <mxCell id="5gK6zpaWBkJ-7K4iz9fj-54" value="" style="endArrow=classic;html=1;rounded=0;entryX=0.5;entryY=0;entryDx=0;entryDy=0;strokeWidth=3;" parent="1" edge="1">
          <mxGeometry relative="1" as="geometry">
            <mxPoint x="430" y="499.5" as="sourcePoint" />
            <mxPoint x="550" y="520" as="targetPoint" />
            <Array as="points">
              <mxPoint x="560" y="490" />
            </Array>
          </mxGeometry>
        </mxCell>
        <mxCell id="5gK6zpaWBkJ-7K4iz9fj-55" value="&lt;font style=&quot;font-size: 13px;&quot;&gt;Optional&lt;/font&gt;" style="edgeLabel;resizable=0;html=1;;align=center;verticalAlign=middle;" parent="5gK6zpaWBkJ-7K4iz9fj-54" connectable="0" vertex="1">
          <mxGeometry relative="1" as="geometry" />
        </mxCell>
        <mxCell id="5gK6zpaWBkJ-7K4iz9fj-56" value="" style="endArrow=classic;html=1;rounded=0;exitX=0.463;exitY=1.05;exitDx=0;exitDy=0;exitPerimeter=0;entryX=1;entryY=0.5;entryDx=0;entryDy=0;strokeWidth=3;" parent="1" source="5gK6zpaWBkJ-7K4iz9fj-46" edge="1">
          <mxGeometry width="50" height="50" relative="1" as="geometry">
            <mxPoint x="400" y="520" as="sourcePoint" />
            <mxPoint x="440" y="590" as="targetPoint" />
            <Array as="points">
              <mxPoint x="560" y="590" />
            </Array>
          </mxGeometry>
        </mxCell>
        <mxCell id="5gK6zpaWBkJ-7K4iz9fj-60" value="&lt;font style=&quot;font-size: 14px;&quot;&gt;&lt;b&gt;Run GeenSeed&lt;/b&gt;&lt;/font&gt;" style="rounded=0;whiteSpace=wrap;html=1;fillColor=#dae8fc;strokeColor=#6c8ebf;" parent="1" vertex="1">
          <mxGeometry x="280" y="840" width="160" height="40" as="geometry" />
        </mxCell>
        <mxCell id="5gK6zpaWBkJ-7K4iz9fj-61" value="&lt;font style=&quot;font-size: 14px;&quot;&gt;&lt;b&gt;blastx against viral refrence&lt;/b&gt;&lt;/font&gt;" style="rounded=0;whiteSpace=wrap;html=1;fillColor=#dae8fc;strokeColor=#6c8ebf;" parent="1" vertex="1">
          <mxGeometry x="280" y="920" width="160" height="40" as="geometry" />
        </mxCell>
        <mxCell id="5gK6zpaWBkJ-7K4iz9fj-62" value="VirusGatherer" style="swimlane;whiteSpace=wrap;html=1;fillColor=#b0e3e6;strokeColor=#0e8088;" parent="1" vertex="1">
          <mxGeometry x="40" y="760" width="640" height="230" as="geometry" />
        </mxCell>
        <mxCell id="5gK6zpaWBkJ-7K4iz9fj-66" value="" style="endArrow=classic;html=1;rounded=0;exitX=0.5;exitY=1;exitDx=0;exitDy=0;entryX=0.5;entryY=0;entryDx=0;entryDy=0;" parent="1" target="5gK6zpaWBkJ-7K4iz9fj-62" edge="1">
          <mxGeometry width="50" height="50" relative="1" as="geometry">
            <mxPoint x="360" y="720" as="sourcePoint" />
            <mxPoint x="450" y="840" as="targetPoint" />
          </mxGeometry>
        </mxCell>
        <mxCell id="5gK6zpaWBkJ-7K4iz9fj-67" value="" style="endArrow=classic;html=1;rounded=0;entryX=0.5;entryY=0;entryDx=0;entryDy=0;strokeWidth=3;" parent="1" target="5gK6zpaWBkJ-7K4iz9fj-61" edge="1">
          <mxGeometry width="50" height="50" relative="1" as="geometry">
            <mxPoint x="360" y="880" as="sourcePoint" />
            <mxPoint x="450" y="840" as="targetPoint" />
          </mxGeometry>
        </mxCell>
        <mxCell id="5gK6zpaWBkJ-7K4iz9fj-69" value="&lt;font style=&quot;font-size: 14px;&quot;&gt;&lt;b&gt;VirusHunter&amp;nbsp;&lt;/b&gt;&lt;/font&gt;&lt;div style=&quot;font-size: 14px;&quot;&gt;&lt;font style=&quot;font-size: 14px;&quot;&gt;&lt;b&gt;Hittable&lt;/b&gt;&lt;/font&gt;&lt;/div&gt;" style="shape=step;perimeter=stepPerimeter;whiteSpace=wrap;html=1;fixedSize=1;fillColor=#60a917;fontColor=#ffffff;strokeColor=#2D7600;" parent="1" vertex="1">
          <mxGeometry x="720" y="480" width="120" height="80" as="geometry" />
        </mxCell>
        <mxCell id="5gK6zpaWBkJ-7K4iz9fj-70" value="&lt;font style=&quot;&quot;&gt;&lt;b style=&quot;&quot;&gt;&lt;font style=&quot;font-size: 12px;&quot;&gt;VirusGatherer&lt;/font&gt;&lt;span style=&quot;font-size: 14px;&quot;&gt;&amp;nbsp;&lt;/span&gt;&lt;/b&gt;&lt;/font&gt;&lt;div style=&quot;font-size: 14px;&quot;&gt;&lt;font style=&quot;font-size: 14px;&quot;&gt;&lt;b&gt;Hittable&lt;/b&gt;&lt;/font&gt;&lt;/div&gt;" style="shape=step;perimeter=stepPerimeter;whiteSpace=wrap;html=1;fixedSize=1;fillColor=#0050ef;fontColor=#ffffff;strokeColor=#001DBC;" parent="1" vertex="1">
          <mxGeometry x="710" y="880" width="120" height="80" as="geometry" />
        </mxCell>
        <mxCell id="5gK6zpaWBkJ-7K4iz9fj-71" value="" style="endArrow=classic;html=1;rounded=0;entryX=0;entryY=0.5;entryDx=0;entryDy=0;strokeWidth=3;" parent="1" target="5gK6zpaWBkJ-7K4iz9fj-69" edge="1">
          <mxGeometry width="50" height="50" relative="1" as="geometry">
            <mxPoint x="680" y="520" as="sourcePoint" />
            <mxPoint x="450" y="720" as="targetPoint" />
          </mxGeometry>
        </mxCell>
        <mxCell id="5gK6zpaWBkJ-7K4iz9fj-72" value="" style="endArrow=classic;html=1;rounded=0;entryX=0;entryY=0.5;entryDx=0;entryDy=0;strokeWidth=3;" parent="1" target="5gK6zpaWBkJ-7K4iz9fj-70" edge="1">
          <mxGeometry width="50" height="50" relative="1" as="geometry">
            <mxPoint x="680" y="920" as="sourcePoint" />
            <mxPoint x="450" y="720" as="targetPoint" />
          </mxGeometry>
        </mxCell>
        <mxCell id="5gK6zpaWBkJ-7K4iz9fj-81" value="&lt;font style=&quot;font-size: 14px;&quot;&gt;&lt;b&gt;Contigs&lt;/b&gt;&lt;/font&gt;" style="shape=step;perimeter=stepPerimeter;whiteSpace=wrap;html=1;fixedSize=1;fillColor=#0050ef;fontColor=#ffffff;strokeColor=#001DBC;" parent="1" vertex="1">
          <mxGeometry x="710" y="780" width="120" height="80" as="geometry" />
        </mxCell>
        <mxCell id="5gK6zpaWBkJ-7K4iz9fj-83" value="" style="endArrow=classic;html=1;rounded=0;entryX=0;entryY=0.5;entryDx=0;entryDy=0;strokeWidth=3;" parent="1" edge="1">
          <mxGeometry width="50" height="50" relative="1" as="geometry">
            <mxPoint x="680" y="819.5" as="sourcePoint" />
            <mxPoint x="730" y="819.5" as="targetPoint" />
          </mxGeometry>
        </mxCell>
        <mxCell id="5gK6zpaWBkJ-7K4iz9fj-84" value="&lt;font style=&quot;font-size: 14px;&quot;&gt;&lt;b&gt;Contigs&lt;/b&gt;&lt;/font&gt;" style="shape=step;perimeter=stepPerimeter;whiteSpace=wrap;html=1;fixedSize=1;fillColor=#60a917;fontColor=#ffffff;strokeColor=#2D7600;" parent="1" vertex="1">
          <mxGeometry x="720" y="360" width="120" height="80" as="geometry" />
        </mxCell>
        <mxCell id="5gK6zpaWBkJ-7K4iz9fj-85" value="" style="endArrow=classic;html=1;rounded=0;strokeWidth=3;" parent="1" target="5gK6zpaWBkJ-7K4iz9fj-84" edge="1">
          <mxGeometry width="50" height="50" relative="1" as="geometry">
            <mxPoint x="680" y="400" as="sourcePoint" />
            <mxPoint x="710" y="400" as="targetPoint" />
            <Array as="points" />
          </mxGeometry>
        </mxCell>
        <mxCell id="DtNA1OOpv918O6FHiLsb-1" value="&lt;font style=&quot;font-size: 13px;&quot;&gt;&lt;b&gt;MSA of virus-specific proteins.&lt;/b&gt;&lt;/font&gt;" style="ellipse;whiteSpace=wrap;html=1;fillColor=#f9f7ed;strokeColor=#36393d;" vertex="1" parent="1">
          <mxGeometry x="714" y="163" width="120" height="80" as="geometry" />
        </mxCell>
        <mxCell id="DtNA1OOpv918O6FHiLsb-2" value="&lt;font style=&quot;font-size: 14px;&quot;&gt;&lt;b&gt;Profile(s)&lt;/b&gt;&lt;/font&gt;" style="ellipse;whiteSpace=wrap;html=1;fillColor=#f9f7ed;strokeColor=#36393d;" vertex="1" parent="1">
          <mxGeometry x="560" y="163" width="120" height="80" as="geometry" />
        </mxCell>
        <mxCell id="DtNA1OOpv918O6FHiLsb-3" value="" style="endArrow=classic;html=1;rounded=0;exitX=0;exitY=0.5;exitDx=0;exitDy=0;entryX=1;entryY=0.5;entryDx=0;entryDy=0;strokeWidth=3;" edge="1" parent="1" source="DtNA1OOpv918O6FHiLsb-1" target="DtNA1OOpv918O6FHiLsb-2">
          <mxGeometry width="50" height="50" relative="1" as="geometry">
            <mxPoint x="484" y="407" as="sourcePoint" />
            <mxPoint x="534" y="357" as="targetPoint" />
          </mxGeometry>
        </mxCell>
        <mxCell id="DtNA1OOpv918O6FHiLsb-4" value="" style="endArrow=classic;html=1;rounded=0;exitX=0.5;exitY=1;exitDx=0;exitDy=0;entryX=1;entryY=0.5;entryDx=0;entryDy=0;strokeWidth=3;" edge="1" parent="1" source="DtNA1OOpv918O6FHiLsb-2" target="5gK6zpaWBkJ-7K4iz9fj-43">
          <mxGeometry width="50" height="50" relative="1" as="geometry">
            <mxPoint x="484" y="407" as="sourcePoint" />
            <mxPoint x="534" y="357" as="targetPoint" />
            <Array as="points">
              <mxPoint x="618" y="337" />
            </Array>
          </mxGeometry>
        </mxCell>
        <mxCell id="DtNA1OOpv918O6FHiLsb-5" value="Virushunter" style="swimlane;whiteSpace=wrap;html=1;fillColor=#e3c800;fontColor=#000000;strokeColor=#B09500;" vertex="1" parent="1">
          <mxGeometry x="40" y="270" width="640" height="450" as="geometry" />
        </mxCell>
        <mxCell id="DtNA1OOpv918O6FHiLsb-6" value="Filter" style="swimlane;horizontal=0;whiteSpace=wrap;html=1;fillColor=#f8cecc;gradientColor=#ea6b66;strokeColor=#b85450;" vertex="1" parent="DtNA1OOpv918O6FHiLsb-5">
          <mxGeometry x="120" y="100" width="490" height="260" as="geometry" />
        </mxCell>
        <mxCell id="DtNA1OOpv918O6FHiLsb-7" value="&lt;font style=&quot;font-size: 14px;&quot;&gt;&lt;b&gt;tblastx against viral genome&lt;/b&gt;&lt;/font&gt;" style="rounded=0;whiteSpace=wrap;html=1;fillColor=#f8cecc;strokeColor=#b85450;" vertex="1" parent="DtNA1OOpv918O6FHiLsb-6">
          <mxGeometry x="120" y="200" width="160" height="40" as="geometry" />
        </mxCell>
        <mxCell id="DtNA1OOpv918O6FHiLsb-8" value="&lt;font size=&quot;1&quot; style=&quot;&quot;&gt;&lt;b style=&quot;font-size: 13px;&quot;&gt;taxonomy annotation for final viral refrence hits&lt;/b&gt;&lt;/font&gt;" style="rounded=0;whiteSpace=wrap;html=1;fillColor=#e1d5e7;strokeColor=#9673a6;" vertex="1" parent="DtNA1OOpv918O6FHiLsb-5">
          <mxGeometry x="240" y="380" width="160" height="40" as="geometry" />
        </mxCell>
        <mxCell id="DtNA1OOpv918O6FHiLsb-9" value="" style="endArrow=classic;html=1;rounded=0;exitX=0.5;exitY=1;exitDx=0;exitDy=0;entryX=0.5;entryY=0;entryDx=0;entryDy=0;strokeWidth=3;" edge="1" parent="DtNA1OOpv918O6FHiLsb-5" source="DtNA1OOpv918O6FHiLsb-7" target="DtNA1OOpv918O6FHiLsb-8">
          <mxGeometry width="50" height="50" relative="1" as="geometry">
            <mxPoint x="550" y="130" as="sourcePoint" />
            <mxPoint x="730" y="210" as="targetPoint" />
          </mxGeometry>
        </mxCell>
      </root>
    </mxGraphModel>
  </diagram>
</mxfile>
